# xmcd CD database file
#
# Track frame offsets:
#	150
#	18112
#	35415
#	52842
#	71392
#	89942
#	108997
#	129237
#	145467
#	163155
#	179695
#	195267
#	213567
#	231895
#	248722
#	270055
#
# Disc length: 3877 seconds
#
# Revision: 5
# Processed by: cddbd v1.5.2PL0 Copyright (c) Steve Scherf et al.
# Submitted via: CDex 1.51
#
DISCID=d90f2310
DTITLE=Various Artist - Club Mix: The 80's
DYEAR=1998
DGENRE=Pop
TTITLE0=Chaka Khan - I feel for you
TTITLE1=Aretha Franklin - Freeway of love
TTITLE2=Ready for the World - Oh Shelia
TTITLE3=ABC - When Smokey Sings
TTITLE4=Dazz Band - Let it whip
TTITLE5=Eurythmics - Would I Lie To You
TTITLE6=Pebbles - Mercedes Boy
TTITLE7=Rick Astley - Never gonna give you up
TTITLE8=Regina - Baby Love
TTITLE9=Animotion - Obsession
TTITLE10=When in Rome - The Promise
TTITLE11=Pretty Poison - Catch Me (I'm falling)
TTITLE12=The Jets - Crush On You
TTITLE13=Company B - Fascinated
TTITLE14=Boys Don't Cry - I wanna be a Cowboy
TTITLE15=The Blow Monkeys - Digging Your Scene
EXTD=YEAR: 1998
EXTT0=Chaka Khan\n
EXTT1=
EXTT2=
EXTT3=
EXTT4=
EXTT5=
EXTT6=
EXTT7=
EXTT8=
EXTT9=
EXTT10=
EXTT11=
EXTT12=
EXTT13=
EXTT14=
EXTT15=
PLAYORDER=
